<svg xmlns="http://www.w3.org/2000/svg" viewBox="0 0 1024 1024"><defs><style>.cls-1{isolation:isolate;}.cls-2{fill:#bc1919;}.cls-3{fill:#f14141;}.cls-4{mix-blend-mode:overlay;}.cls-5{fill:#ff9494;}</style></defs><g class="cls-1"><g id="Layer_1" data-name="Layer 1"><path class="cls-2" d="M132,512H338.22a238.64,238.64,0,0,1,18.3-92.12A254.22,254.22,0,0,1,409,340.53l.48-.47h-244Q132.05,420.9,132,512Z"/><path class="cls-2" d="M747,102.08H382.74q-74.92,32.73-135.45,93.22c-1.81,1.81-3.58,3.65-5.35,5.48H876.43l1.59-1.6h0l3.88-3.88Q821.38,134.79,747,102.08Z"/><path class="cls-2" d="M806.19,101.29h0q-5.73-2.51-11.55-4.84-82.38-33-168.41-32.95t-169,33c-4.52,1.8-9,3.69-13.43,5.63H808C807.37,101.82,806.79,101.54,806.19,101.29Z"/><path class="cls-2" d="M296.89,200.78h-9.18A440.39,440.39,0,0,0,196,339.92a.78.78,0,0,0-.05.14H440q35.2-35,79.46-52.62a244.55,244.55,0,0,1,90.92-17.69,249.39,249.39,0,0,1,91.53,17.69,234,234,0,0,1,80.55,53.09L922.19,200.78Z"/><path class="cls-2" d="M439.5,683.47A256,256,0,0,1,387,604.75a234.11,234.11,0,0,1-18.31-92.14c0-.21,0-.42,0-.63H162.48c0,.21,0,.42,0,.63q0,90.23,33.49,171.29h244C439.8,683.75,439.65,683.61,439.5,683.47Z"/><path class="cls-2" d="M866.65,829.92l-144.8-146H721a233.31,233.31,0,0,1-80.11,52.65,248.78,248.78,0,0,1-91.53,17.7,244,244,0,0,1-90.92-17.7q-44.3-17.56-79.5-52.65h-244l.07.18q33.56,81.17,97,145.84l2.08,2H864.57Z"/><path class="cls-2" d="M564.59,960.5a457,457,0,0,0,165.25-30.66H400A458.1,458.1,0,0,0,564.59,960.5Z"/><path class="cls-2" d="M956.1,831.94H325.64q65.12,64.35,146.2,96.22c1.47.58,3,1.11,4.42,1.68H806.12c1.46-.57,2.93-1.1,4.39-1.68Q891,896.35,956.1,831.94Z"/><path class="cls-3" d="M101.46,512H307.71A238.64,238.64,0,0,1,326,419.86a254.22,254.22,0,0,1,52.47-79.33l.48-.47H135Q101.54,420.9,101.46,512Z"/><path class="cls-3" d="M716.44,102.08H352.23Q277.3,134.81,216.78,195.3c-1.81,1.81-3.58,3.65-5.35,5.48H845.92l1.59-1.6h0l3.88-3.88Q790.87,134.79,716.44,102.08Z"/><path class="cls-3" d="M775.68,101.29h0q-5.73-2.51-11.55-4.84-82.38-33-168.41-32.95t-169,33c-4.52,1.8-9,3.69-13.43,5.63h364.2C776.86,101.82,776.28,101.54,775.68,101.29Z"/><path class="cls-3" d="M266.38,200.78H257.2a440.39,440.39,0,0,0-91.68,139.14.78.78,0,0,0-.05.14h244q35.2-35,79.46-52.62a244.55,244.55,0,0,1,90.92-17.69,249.39,249.39,0,0,1,91.53,17.69,234,234,0,0,1,80.55,53.09L891.68,200.78Z"/><path class="cls-3" d="M409,683.47a256,256,0,0,1-52.47-78.72,234.11,234.11,0,0,1-18.31-92.14c0-.21,0-.42,0-.63H132c0,.21,0,.42,0,.63q0,90.23,33.49,171.29h244C409.29,683.75,409.14,683.61,409,683.47Z"/><path class="cls-3" d="M836.13,829.92l-144.79-146h-.87a233.31,233.31,0,0,1-80.11,52.65,248.78,248.78,0,0,1-91.53,17.7,244,244,0,0,1-90.92-17.7q-44.3-17.56-79.5-52.65h-244l.07.18q33.56,81.17,97,145.84c.69.68,1.39,1.34,2.07,2H834.06C834.75,831.26,835.45,830.6,836.13,829.92Z"/><path class="cls-3" d="M534.08,960.5a457,457,0,0,0,165.25-30.66H369.48A458.1,458.1,0,0,0,534.08,960.5Z"/><path class="cls-3" d="M925.59,831.94H295.13q65.12,64.35,146.2,96.22c1.47.58,2.95,1.11,4.42,1.68H775.61c1.46-.57,2.93-1.1,4.39-1.68Q860.47,896.35,925.59,831.94Z"/><g class="cls-4"><path class="cls-5" d="M67.9,512H274.15a238.63,238.63,0,0,1,18.29-92.12,254.43,254.43,0,0,1,52.48-79.33l.48-.47h-244Q68,420.9,67.9,512Z"/><path class="cls-5" d="M682.87,102.08H318.67q-74.94,32.73-135.45,93.22c-1.81,1.81-3.58,3.65-5.35,5.48H812.36l1.59-1.6h0l3.88-3.88Q757.31,134.79,682.87,102.08Z"/><path class="cls-5" d="M742.12,101.29h0q-5.73-2.51-11.55-4.84-82.38-33-168.42-32.95t-169,33c-4.52,1.8-9,3.69-13.44,5.63H743.9C743.3,101.82,742.72,101.54,742.12,101.29Z"/><path class="cls-5" d="M232.81,200.78h-9.17A440.39,440.39,0,0,0,132,339.92l-.06.14h244q35.2-35,79.46-52.62a244.55,244.55,0,0,1,90.92-17.69,249.39,249.39,0,0,1,91.53,17.69,234,234,0,0,1,80.55,53.09L858.12,200.78Z"/><path class="cls-5" d="M375.43,683.47A256.25,256.25,0,0,1,323,604.75a234.28,234.28,0,0,1-18.3-92.14c0-.21,0-.42,0-.63H98.41c0,.21,0,.42,0,.63q0,90.23,33.49,171.29h244C375.73,683.75,375.58,683.61,375.43,683.47Z"/><path class="cls-5" d="M802.57,829.92l-144.8-146h-.87a233.17,233.17,0,0,1-80.1,52.65,248.78,248.78,0,0,1-91.53,17.7,244,244,0,0,1-90.92-17.7q-44.3-17.56-79.5-52.65h-244l.07.18q33.56,81.17,97,145.84c.69.68,1.39,1.34,2.07,2H800.5C801.19,831.26,801.89,830.6,802.57,829.92Z"/><path class="cls-5" d="M500.52,960.5a457,457,0,0,0,165.25-30.66H335.91A458.19,458.19,0,0,0,500.52,960.5Z"/><path class="cls-5" d="M892,831.94H261.56q65.13,64.35,146.21,96.22c1.47.58,3,1.11,4.42,1.68H742.05c1.46-.57,2.93-1.1,4.39-1.68Q826.9,896.35,892,831.94Z"/></g><polygon class="cls-5" points="657.77 683.9 690.47 683.9 673.26 699.51 657.77 683.9"/><polygon class="cls-3" points="691.34 683.9 720.98 683.9 705.44 698.12 691.34 683.9"/><path class="cls-3" d="M782.44,340.53H751.93l14.59-14.59S774.81,332.9,782.44,340.53Z"/><path class="cls-5" d="M718.37,340.53l16-16s10.37,7.74,17.58,16Z"/></g></g></svg>